# xmcd
#
# Track frame offsets:
#  150
#  26944
#  53522
#  83367
#  101236
#  122866
#  145743
#  163763
#  192724
#  210785
#  228485
#  253431
#
# Disc length: 3612 seconds
#
# Revision: 0
# Processed by: cddbd v1.5.1PL2 Copyright (c) Steve Scherf et al.
# Submitted via: Collectorz.com_Music_Collector 6.11
#
DISCID=a80e1a0c
DTITLE=4 The Blues - I Am A Tree
DYEAR=2006
DGENRE=Blues
TTITLE0=Election Shuffle
TTITLE1=Jeronimo
TTITLE2=Reality TV
TTITLE3=Dimples
TTITLE4=Coordinating Woman Blues
TTITLE5=I Done Somebody Wrong
TTITLE6=Born Under A Bad Sign
TTITLE7=I Am A Tree
TTITLE8=Hairtrigger Blues
TTITLE9=Evil Is Going On
TTITLE10=Been Changing
TTITLE11=21st Century
EXTD=
EXTT0=
EXTT1=
EXTT2=
EXTT3=
EXTT4=
EXTT5=
EXTT6=
EXTT7=
EXTT8=
EXTT9=
EXTT10=
EXTT11=
PLAYORDER=
